<svg height="512pt" viewBox="0 0 512 512" width="512pt" xmlns="http://www.w3.org/2000/svg"><path d="m512 256c0 141.386719-114.613281 256-256 256s-256-114.613281-256-256 114.613281-256 256-256 256 114.613281 256 256zm0 0" fill="#ffce00"/><path d="m512 256c0-8.042969-.390625-15.996094-1.113281-23.847656l-84.25-84.25-52.726563 3.773437-82.25-82.253906-85.78125 30.03125-9.28125 36.96875-102.839844 27.273437 33.9375 98.304688-41.085937 103.460938 145.410156 145.410156c7.898438.734375 15.890625 1.128906 23.980469 1.128906 141.386719 0 256-114.613281 256-256zm0 0" fill="#ffa300"/><path d="m256 458.621094c-25.96875 0-49.113281-22.925782-65.167969-64.554688-14.316406-37.117187-22.203125-86.152344-22.203125-138.066406s7.886719-100.949219 22.203125-138.066406c16.054688-41.628906 39.199219-64.554688 65.167969-64.554688s49.113281 22.925782 65.167969 64.554688c14.316406 37.117187 22.203125 86.152344 22.203125 138.066406s-7.886719 100.949219-22.203125 138.066406c-16.054688 41.628906-39.199219 64.554688-65.167969 64.554688zm0-375.242188c-12.144531 0-26.390625 17.378906-37.179688 45.351563-13.019531 33.757812-20.191406 78.957031-20.191406 127.269531s7.171875 93.511719 20.191406 127.269531c10.789063 27.972657 25.035157 45.351563 37.179688 45.351563s26.390625-17.378906 37.179688-45.351563c13.019531-33.757812 20.191406-78.957031 20.191406-127.269531s-7.171875-93.511719-20.191406-127.269531c-10.789063-27.972657-25.035157-45.351563-37.179688-45.351563zm0 0" fill="#2864f0"/><path d="m321.167969 117.933594c-16.054688-41.628906-39.199219-64.554688-65.167969-64.554688v30c12.144531 0 26.390625 17.378906 37.179688 45.351563 13.019531 33.757812 20.191406 78.957031 20.191406 127.269531s-7.171875 93.511719-20.191406 127.269531c-10.789063 27.972657-25.035157 45.351563-37.179688 45.351563v30c25.96875 0 49.113281-22.925782 65.167969-64.554688 14.316406-37.117187 22.203125-86.152344 22.203125-138.066406s-7.882813-100.949219-22.203125-138.066406zm0 0" fill="#27488f"/><path d="m370.820312 383.800781c-8.59375 0-17.890624-.769531-27.835937-2.328125-39.304687-6.160156-85.710937-23.851562-130.667969-49.808594-44.960937-25.957031-83.480468-57.300781-108.46875-88.257812-28.023437-34.722656-36.304687-66.226562-23.320312-88.714844 12.984375-22.488281 44.40625-31.070312 88.488281-24.164062 39.304687 6.160156 85.710937 23.851562 130.671875 49.808594 44.957031 25.957031 83.480469 57.300781 108.464844 88.257812 28.023437 34.722656 36.304687 66.226562 23.320312 88.714844-10.050781 17.414062-31.171875 26.492187-60.652344 26.492187zm-229.910156-225.613281c-17.5625 0-30.074218 4.003906-34.402344 11.503906-6.074218 10.515625 1.851563 31.539063 20.683594 54.871094 22.722656 28.15625 58.28125 56.964844 100.121094 81.121094 41.84375 24.160156 84.570312 40.546875 120.316406 46.148437 29.617188 4.644531 51.792969.992188 57.863282-9.523437 6.070312-10.515625-1.855469-31.539063-20.683594-54.871094-22.722656-28.15625-58.28125-56.964844-100.125-81.121094-41.839844-24.160156-84.570313-40.546875-120.3125-46.148437-8.5-1.332031-16.390625-1.980469-23.460938-1.980469zm0 0" fill="#0053bf"/><path d="m408.152344 268.59375c-24.984375-30.957031-63.507813-62.300781-108.464844-88.257812-14.507812-8.375-29.164062-15.886719-43.6875-22.429688v33.128906c9.546875 4.664063 19.140625 9.769532 28.6875 15.28125 41.839844 24.15625 77.398438 52.964844 100.121094 81.121094 18.832031 23.332031 26.757812 44.359375 20.683594 54.875-6.070313 10.515625-28.246094 14.164062-57.863282 9.523438-27.589844-4.324219-59.339844-15.082032-91.628906-30.867188v33.128906c30.480469 13.734375 60.363281 23.203125 86.984375 27.375 9.945313 1.558594 19.242187 2.328125 27.835937 2.328125 29.480469 0 50.601563-9.074219 60.652344-26.488281 12.984375-22.492188 4.703125-53.996094-23.320312-88.71875zm0 0" fill="#1b3b6b"/><path d="m141.179688 383.800781c-29.484376 0-50.601563-9.074219-60.652344-26.492187-12.984375-22.488282-4.703125-53.992188 23.320312-88.714844 24.984375-30.957031 63.507813-62.300781 108.464844-88.257812 44.960938-25.957032 91.367188-43.648438 130.671875-49.808594 44.082031-6.90625 75.503906 1.671875 88.488281 24.164062 12.984375 22.488282 4.703125 53.992188-23.320312 88.714844-24.988282 30.957031-63.507813 62.300781-108.46875 88.257812-44.957032 25.957032-91.367188 43.648438-130.667969 49.808594-9.945313 1.554688-19.246094 2.328125-27.835937 2.328125zm86.132812-177.484375c-41.839844 24.15625-77.398438 52.964844-100.121094 81.121094-18.832031 23.332031-26.757812 44.355469-20.683594 54.871094 6.070313 10.515625 28.238282 14.167968 57.863282 9.523437 35.746094-5.601562 78.472656-21.988281 120.3125-46.148437 41.84375-24.15625 77.402344-52.964844 100.125-81.121094 18.828125-23.332031 26.753906-44.355469 20.683594-54.871094-6.070313-10.519531-28.242188-14.167968-57.863282-9.523437-35.746094 5.601562-78.472656 21.988281-120.316406 46.148437zm0 0" fill="#4a7aff"/><path d="m431.472656 154.691406c-12.980468-22.492187-44.40625-31.070312-88.488281-24.164062-26.621094 4.171875-56.503906 13.640625-86.984375 27.378906v33.125c32.289062-15.785156 64.039062-26.539062 91.628906-30.863281 29.621094-4.644531 51.792969-.996094 57.863282 9.523437 6.074218 10.515625-1.851563 31.539063-20.683594 54.871094-22.722656 28.15625-58.28125 56.964844-100.121094 81.121094-9.546875 5.511718-19.140625 10.617187-28.6875 15.285156v33.125c14.519531-6.542969 29.179688-14.050781 43.6875-22.429688 44.957031-25.957031 83.480469-57.300781 108.464844-88.257812 28.023437-34.722656 36.304687-66.226562 23.320312-88.714844zm0 0" fill="#0053bf"/><path d="m369.191406 144.714844c0 13.039062-10.570312 23.605468-23.605468 23.605468-13.039063 0-23.609376-10.566406-23.609376-23.605468 0-13.035156 10.570313-23.605469 23.609376-23.605469 13.035156 0 23.605468 10.570313 23.605468 23.605469zm0 0" fill="#e9edf5"/><path d="m233.785156 404.585938c0 13.039062-10.570312 23.605468-23.605468 23.605468-13.039063 0-23.609376-10.566406-23.609376-23.605468 0-13.039063 10.570313-23.605469 23.609376-23.605469 13.035156 0 23.605468 10.566406 23.605468 23.605469zm0 0" fill="#fff"/><path d="m294.277344 256c0 20.371094-16.515625 36.886719-36.886719 36.886719-20.375 0-36.886719-16.515625-36.886719-36.886719s16.511719-36.886719 36.886719-36.886719c20.371094 0 36.886719 16.515625 36.886719 36.886719zm0 0" fill="#fff"/><path d="m257.390625 219.113281c-.46875 0-.929687.019531-1.390625.035157v73.703124c.460938.019532.921875.035157 1.390625.035157 20.371094 0 36.886719-16.515625 36.886719-36.886719s-16.515625-36.886719-36.886719-36.886719zm0 0" fill="#e9edf5"/></svg>