<svg height="496pt" viewBox="0 0 496 496" width="496pt" xmlns="http://www.w3.org/2000/svg" xmlns:xlink="http://www.w3.org/1999/xlink"><linearGradient id="linear0" gradientUnits="userSpaceOnUse" x1="248" x2="248" y1="496" y2="0"><stop offset="0" stop-color="#9f2fff"/><stop offset="1" stop-color="#0bb1d3"/></linearGradient><path d="m408 48v-16c30.878906 0 56 25.121094 56 56h-16c0-22.054688-17.945312-40-40-40zm-359.847656 388.535156 22.609375-22.605468c-14.167969-16.738282-22.761719-38.335938-22.761719-61.929688 0-29.503906 13.398438-55.910156 34.40625-73.535156l-30.757812-56.394532c-3.710938 1.136719-7.570313 1.929688-11.648438 1.929688-22.054688 0-40-17.945312-40-40s17.945312-40 40-40 40 17.945312 40 40c0 12.222656-5.632812 23.054688-14.3125 30.398438l29.914062 54.832031c14.230469-8.359375 30.734376-13.230469 48.398438-13.230469 23.59375 0 45.191406 8.59375 61.929688 22.761719l34.992187-34.992188c-5.59375-7.847656-8.921875-17.417969-8.921875-27.769531 0-26.472656 21.527344-48 48-48 10.351562 0 19.921875 3.328125 27.769531 8.921875l32.644531-32.648437c-11.125-13.34375-18.351562-30.007813-20.007812-48.273438h-73.214844c-3.71875 18.230469-19.871094 32-39.191406 32-22.054688 0-40-17.945312-40-40s17.945312-40 40-40c19.320312 0 35.472656 13.769531 39.191406 32h73.214844c4.058594-44.785156 41.769531-80 87.59375-80 48.519531 0 88 39.480469 88 88s-39.480469 88-88 88c-21.382812 0-41.007812-7.679688-56.273438-20.414062l-32.648437 32.644531c5.59375 7.847656 8.921875 17.417969 8.921875 27.769531 0 26.472656-21.527344 48-48 48-10.351562 0-19.921875-3.328125-27.769531-8.921875l-34.992188 34.992187c14.167969 16.738282 22.761719 38.335938 22.761719 61.929688 0 16.390625-4.152344 31.832031-11.425781 45.34375l68.121093 34.054688c7.335938-9.300782 18.570313-15.398438 31.304688-15.398438 22.054688 0 40 17.945312 40 40s-17.945312 40-40 40-40-17.945312-40-40c0-3.585938.625-6.992188 1.511719-10.304688l-69.800781-34.894531c-17.574219 22.589844-44.933594 37.199219-75.710938 37.199219-23.59375 0-45.191406-8.59375-61.929688-22.761719l-22.605468 22.609375c2.816406 4.761719 4.535156 10.230469 4.535156 16.152344 0 17.648438-14.351562 32-32 32s-32-14.351562-32-32 14.351562-32 32-32c5.921875 0 11.390625 1.71875 16.152344 4.535156zm255.847656 19.464844c0 13.230469 10.769531 24 24 24s24-10.769531 24-24-10.769531-24-24-24-24 10.769531-24 24zm-72-368c0-13.230469-10.769531-24-24-24s-24 10.769531-24 24 10.769531 24 24 24 24-10.769531 24-24zm-192 120c13.230469 0 24-10.769531 24-24s-10.769531-24-24-24-24 10.769531-24 24 10.769531 24 24 24zm8 256c0-8.824219-7.175781-16-16-16s-16 7.175781-16 16 7.175781 16 16 16 16-7.175781 16-16zm288-376c0 39.695312 32.304688 72 72 72s72-32.304688 72-72-32.304688-72-72-72-72 32.304688-72 72zm-88 128c0 17.648438 14.351562 32 32 32s32-14.351562 32-32-14.351562-32-32-32-32 14.351562-32 32zm-184 136c0 44.113281 35.886719 80 80 80s80-35.886719 80-80-35.886719-80-80-80-80 35.886719-80 80zm80-48v-16c-35.289062 0-64 28.710938-64 64h16c0-26.472656 21.527344-48 48-48zm336-104h-16v96h-16v-80h-16v80h-16v-32h-16v32h-16v-48h-16v48h-16v16h128zm0 128h-128v16h128zm-128 48h96v-16h-96zm128 0v-16h-16v16zm-352-352h-128v16h128zm-32 32h-96v16h96zm32 16v-16h-16v16zm-88 32v-16h-16v16zm32 0v-16h-16v16zm16 0h16v-16h-16zm0 0" fill="url(#linear0)"/></svg>